<svg xmlns="http://www.w3.org/2000/svg" viewBox="0 0 11.63 11.91"><defs><style>.cls-1{fill:#cc9764;}.cls-2{fill:#c6925c;}.cls-3{fill:#724b46;}.cls-4{fill:#634141;}.cls-5{fill:#9f684b;}.cls-6{fill:#c28450;}.cls-7{fill:#8d5e49;}</style></defs><g id="Layer_2" data-name="Layer 2"><g id="Layer_1-2" data-name="Layer 1"><path class="cls-1" d="M5.75,11.91c7.66,0,7.67-11.91,0-11.91s-7.67,11.91,0,11.91Z"/><path id="Path_8877" data-name="Path 8877" class="cls-2" d="M8.48,11a5.54,5.54,0,0,1-1,.49,4.58,4.58,0,0,1-.73.18,3.4,3.4,0,0,1-.46.06l-.5,0H5.29a3.62,3.62,0,0,1-.46-.06l-.56-.11a5.08,5.08,0,0,1-.69-.23c-.18-.07-.34-.15-.51-.23a4.53,4.53,0,0,1-.48-.27l-.33-.23a4.23,4.23,0,0,1-.41-.33,3.45,3.45,0,0,1-.28-.26l-.28-.3c-.09-.1-.16-.2-.24-.3A4.15,4.15,0,0,1,.75,9C.69,8.94.64,8.85.59,8.76a1.36,1.36,0,0,1,0-.2q0-.35,0-.69c0-.13,0-.27,0-.4S.69,7,.75,6.78s.08-.28.13-.43l.18-.46.06-.12,0,0s0,0,0,0A1.15,1.15,0,0,1,1.22,6a.33.33,0,0,0,.24.2l.33.07a.33.33,0,0,0,.39-.16c.08-.14.18-.28.26-.42v0a.32.32,0,0,0-.11-.39L2,5a.6.6,0,0,0-.21-.14l-.1,0s0,0,0,0c.14-.18.29-.36.45-.53s.25-.25.38-.36A5.58,5.58,0,0,1,3,3.48a6.37,6.37,0,0,1,.55-.35h0s0,0,0,0a.38.38,0,0,0,.16.19.23.23,0,0,0,.16,0l.44,0a.34.34,0,0,0,.29-.29,2.32,2.32,0,0,1,.06-.38s0,0,0,0A.88.88,0,0,1,5,2.57a3.86,3.86,0,0,1,.49-.1,5.7,5.7,0,0,1,.83-.09,5.72,5.72,0,0,1,.58,0s0,0,0,0a.21.21,0,0,1,0,.06.4.4,0,0,0,0,.42c0,.05,0,.11.09.17s.15.31.23.46a.37.37,0,0,0,.4.21l.56-.07a.38.38,0,0,0,.32-.34,5.06,5.06,0,0,0,.06-.53s0,0,0,0l.19.07a6.52,6.52,0,0,1,.83.43c.14.09.29.19.43.3a5.89,5.89,0,0,1,1.12,1.11,5.29,5.29,0,0,1,.46.67l0,.06a1.49,1.49,0,0,1,0,.21v.27C11.55,7,9.85,10.45,8.48,11.05"/><path id="Path_8878" data-name="Path 8878" class="cls-1" d="M1.35,5.84c-.05.11-.1.22-.14.33l-.09.23c-.05.15-.1.31-.14.46s-.08.37-.11.56a3.11,3.11,0,0,0,0,.32,3.9,3.9,0,0,0,0,.59,4.7,4.7,0,0,0,0,.53v0a2.15,2.15,0,0,1-.14-.26,2.72,2.72,0,0,1-.11-.25,1.8,1.8,0,0,1-.08-.21,5.8,5.8,0,0,1-.2-.63L.22,7.28.16,7c0-.14,0-.29,0-.44s0-.23,0-.35v-.4c0-.13,0-.29,0-.43s0-.19,0-.28,0-.14,0-.21,0-.23.08-.35,0-.12,0-.18,0-.13.06-.2.07-.22.12-.33a1.54,1.54,0,0,1,.08-.19,2.64,2.64,0,0,1,.18-.38A4,4,0,0,1,1,2.81l.22-.33.27-.35.21-.24.25-.26.17-.14a3.92,3.92,0,0,1,.46-.37C2.69,1,2.81,1,2.93.88L3.22.71,3.63.52,4,.37l.4-.12L4.72.17A3.58,3.58,0,0,1,5.09.11l.32,0H6l.42,0,.24,0A3.43,3.43,0,0,1,7,.17l.4.1.42.14.49.2c.13.06.25.13.37.2l.41.27a4,4,0,0,1,.43.32l.32.29c.1.11.21.21.3.32a3.65,3.65,0,0,1,.26.32l.21.29c.07.1.13.2.19.3s.13.23.19.34.14.3.2.45.12.33.17.49.06.22.09.33.06.27.09.4.05.34.07.52v0s-.06-.09-.09-.15a4.65,4.65,0,0,0-.26-.41,4.83,4.83,0,0,0-.34-.45l-.24-.27A2.77,2.77,0,0,0,10.42,4l-.24-.22L10,3.6l-.24-.17a3.88,3.88,0,0,0-.48-.3c-.12-.07-.24-.14-.37-.2l-.3-.12,0,0h0V2.62a.4.4,0,0,0-.16-.28L8,2a.31.31,0,0,0-.31,0,.59.59,0,0,0-.23.13l-.4.28s0,0-.07,0,0,0-.06,0a4.87,4.87,0,0,0-.54,0l-.52,0-.44.07a2.82,2.82,0,0,0-.57.15s0,0,0-.07a.34.34,0,0,0-.12-.3L4.46,2a.3.3,0,0,0-.33,0l-.44.29a.33.33,0,0,0-.11.41l.1.24.07.15a0,0,0,0,1,0,.05,1,1,0,0,1-.17.1l-.31.22a5.12,5.12,0,0,0-.44.34,4,4,0,0,0-.36.35l-.25.27-.3.39s0,0,0,0h0a.51.51,0,0,0-.24.1l-.26.17a.33.33,0,0,0-.12.42c0,.07.05.15.07.23v0"/><path id="Path_8879" data-name="Path 8879" class="cls-3" d="M8.41,7.09a.76.76,0,0,0-.09-.18v0a.27.27,0,0,1,.09-.21l.37-.38.15-.15a.42.42,0,0,1,.55,0l.42.31a.24.24,0,0,1,.09.08,1.29,1.29,0,0,1-.06.21c0,.11-.07.22-.11.33a.45.45,0,0,1-.23.2l-.45.1-.25.06a.39.39,0,0,1-.41-.2l-.06-.11"/><path id="Path_8880" data-name="Path 8880" class="cls-4" d="M10,6.49l-.15-.12L9.59,6.2,9.4,6.06a.4.4,0,0,0-.47.08l-.34.33-.19.2a.34.34,0,0,0-.09.2.75.75,0,0,1-.13-.35.38.38,0,0,1,.11-.3l.3-.3a2.23,2.23,0,0,1,.27-.26.42.42,0,0,1,.48,0,2.48,2.48,0,0,0,.26.19l.28.21.07.09a.4.4,0,0,1,0,.32"/><path id="Path_8881" data-name="Path 8881" class="cls-5" d="M8.33,8.58a.2.2,0,0,1-.2-.2.2.2,0,0,1,0-.07c0-.08,0-.17.08-.26a.22.22,0,0,1,.2-.14h.32A.25.25,0,0,1,8.9,8a.23.23,0,0,1,0,.1A1.87,1.87,0,0,1,9,8.3a.2.2,0,0,1-.1.2.53.53,0,0,1-.18,0l-.28,0H8.34"/><path id="Path_8882" data-name="Path 8882" class="cls-5" d="M7.65,10.2a.23.23,0,0,1-.16-.11.57.57,0,0,1,0-.22c0-.14,0-.27,0-.4V9.32a.2.2,0,0,1,.14-.14.29.29,0,0,1,.16,0,.21.21,0,0,1,.13.13L8,9.87a.22.22,0,0,1-.13.27h0l-.17,0h0"/><path id="Path_8883" data-name="Path 8883" class="cls-3" d="M8.54,2.75h0a.5.5,0,0,0,0,.12c0,.16,0,.31,0,.46a.37.37,0,0,1-.22.29,1.09,1.09,0,0,1-.35.07l-.34,0a.39.39,0,0,1-.4-.26L7,3.06a.32.32,0,0,1,.1-.22.83.83,0,0,1,.21-.16l.37-.26a.43.43,0,0,1,.45,0l.1.08.32.24,0,0"/><path id="Path_8884" data-name="Path 8884" class="cls-3" d="M6.14,5.56a.53.53,0,0,1,0,.35.6.6,0,0,1-.09.15l-.38.43a.43.43,0,0,1-.38.17.34.34,0,0,1-.17,0l-.48-.26a.12.12,0,0,1-.07,0,2.21,2.21,0,0,0,.05-.25c0-.13,0-.27.07-.41a.41.41,0,0,1,.41-.33h.63a.47.47,0,0,1,.33.16l0,.08"/><path id="Path_8885" data-name="Path 8885" class="cls-3" d="M4.85,8.68l0,.47a.42.42,0,0,1-.29.43l-.38.15a.43.43,0,0,1-.48-.06L3.5,9.5l-.22-.17s0,0,0,0a0,0,0,0,1,0-.05c.06-.14.11-.29.18-.43a1.09,1.09,0,0,1,.08-.15.39.39,0,0,1,.35-.16l.7.05a.41.41,0,0,1,.24.08l0,0"/><path id="Path_8886" data-name="Path 8886" class="cls-3" d="M3.6,3.12A1.22,1.22,0,0,0,3.53,3v0a.18.18,0,0,1,.06-.17l.11-.09.38-.23a.35.35,0,0,1,.34,0l.08.06.23.19a0,0,0,0,1,0,0l0,.22c0,.07,0,.12,0,.18a.33.33,0,0,1-.21.26,2,2,0,0,1-.35,0H4a.3.3,0,0,1-.31-.16L3.6,3.12"/><path id="Path_8887" data-name="Path 8887" class="cls-3" d="M2.46,5.62s0,0,0,.07-.16.25-.24.37a.33.33,0,0,1-.39.17l-.37-.09a.34.34,0,0,1-.23-.22.83.83,0,0,0,0-.15.44.44,0,0,1,.07-.21l.11-.09.36-.22a.34.34,0,0,1,.4.06l.25.21a.35.35,0,0,1,.11.1"/><path id="Path_8888" data-name="Path 8888" class="cls-4" d="M4.85,8.68l-.06,0a.6.6,0,0,0-.29-.08L4,8.53H3.77a.38.38,0,0,0-.24.15A1.23,1.23,0,0,0,3.39,9a1.86,1.86,0,0,0-.1.25.1.1,0,0,0,0,.07.33.33,0,0,1-.15-.23.46.46,0,0,1,0-.26l.2-.48a.45.45,0,0,1,.22-.21.5.5,0,0,1,.27,0l.6,0a.41.41,0,0,1,.39.28.76.76,0,0,1,0,.21v0"/><path id="Path_8889" data-name="Path 8889" class="cls-4" d="M6.14,5.56h0a.41.41,0,0,0-.37-.22H5.18a.45.45,0,0,0-.28.07.44.44,0,0,0-.18.31c0,.11,0,.21-.06.32l0,.24s0,0,0,0a.4.4,0,0,1-.12-.23.49.49,0,0,1,0-.24l.09-.54a.43.43,0,0,1,.23-.35.51.51,0,0,1,.27,0h.55A.43.43,0,0,1,6,5.14a3.59,3.59,0,0,1,.12.35l0,.07"/><path id="Path_8890" data-name="Path 8890" class="cls-4" d="M8.54,2.75l-.15-.1-.25-.19A.42.42,0,0,0,8,2.37a.41.41,0,0,0-.34.07l-.36.24-.19.13A.45.45,0,0,0,7,3.05H7a1.26,1.26,0,0,1-.13-.26.43.43,0,0,1,.11-.39c.09-.07.2-.13.3-.2L7.55,2a.39.39,0,0,1,.3,0,.61.61,0,0,1,.22.13l.15.11a1.64,1.64,0,0,1,.25.21.43.43,0,0,1,.06.35"/><path id="Path_8891" data-name="Path 8891" class="cls-4" d="M2.46,5.62l-.3-.25a.61.61,0,0,0-.24-.15.36.36,0,0,0-.25.06l-.3.18a.37.37,0,0,0-.19.2s0,0,0,.08a0,0,0,0,1,0,0l0,0a2.33,2.33,0,0,0-.07-.25.33.33,0,0,1,.09-.4A1.64,1.64,0,0,1,1.38,5l.17-.11a.34.34,0,0,1,.17,0,.39.39,0,0,1,.25.1L2.14,5a3,3,0,0,1,.27.23.3.3,0,0,1,0,.35"/><path id="Path_8892" data-name="Path 8892" class="cls-4" d="M4.75,2.68l-.29-.24a.33.33,0,0,0-.33,0l-.47.3a.26.26,0,0,0-.13.22.66.66,0,0,1-.09-.19.34.34,0,0,1,0-.17.34.34,0,0,1,.16-.3L4,2a.35.35,0,0,1,.38,0c.1.1.22.17.32.26a.28.28,0,0,1,.1.24.41.41,0,0,1,0,.11.06.06,0,0,1,0,0"/><path id="Path_8893" data-name="Path 8893" class="cls-6" d="M4.34,10.73a3,3,0,0,1-.42,0,.2.2,0,0,1-.16-.23h0A.21.21,0,0,1,4,10.29l.37,0a.2.2,0,0,1,.2.2.21.21,0,0,1-.21.21h0"/><path id="Path_8894" data-name="Path 8894" class="cls-7" d="M6,7.32a.21.21,0,0,1,.21-.2l.09,0,.37.2a.16.16,0,0,1,.1.17.2.2,0,0,1-.12.18.18.18,0,0,1-.19,0,2.55,2.55,0,0,1-.33-.17A.23.23,0,0,1,6,7.32"/><path id="Path_8895" data-name="Path 8895" class="cls-6" d="M3.59,4.74l-.38,0a.21.21,0,0,1-.14-.35.23.23,0,0,1,.2-.06l.36,0a.22.22,0,0,1,.18.23.19.19,0,0,1-.22.17h0"/><path id="Path_8896" data-name="Path 8896" class="cls-7" d="M5.6,10.53s0-.06,0-.08l.18-.33A.2.2,0,0,1,6,10a.22.22,0,0,1,.21.2.29.29,0,0,1,0,.09l-.2.37a.21.21,0,0,1-.29.07.2.2,0,0,1-.09-.2"/><path id="Path_8897" data-name="Path 8897" class="cls-6" d="M7.78,5a.23.23,0,0,1-.15.19l-.37.11A.21.21,0,0,1,7,5.14a.19.19,0,0,1,0-.08.19.19,0,0,1,.13-.18l.41-.12a.2.2,0,0,1,.25.14s0,0,0,.06"/><path id="Path_8898" data-name="Path 8898" class="cls-7" d="M10,4.52a.26.26,0,0,1-.13.17.23.23,0,0,1-.24-.06.18.18,0,0,1,0-.14l0-.39a.22.22,0,0,1,.21-.21.21.21,0,0,1,.2.21c0,.13,0,.26,0,.42"/><path id="Path_8899" data-name="Path 8899" class="cls-7" d="M3.87,6.66c0,.1-.07.14-.15.19L3.45,7a.2.2,0,0,1-.23,0,.2.2,0,0,1-.08-.27.22.22,0,0,1,.11-.1l.33-.19a.21.21,0,0,1,.27.08l0,.08v0"/><path id="Path_8900" data-name="Path 8900" class="cls-7" d="M2.23,8.49a.21.21,0,0,1-.12.2.2.2,0,0,1-.21,0L1.69,8.4l-.08-.09a.2.2,0,0,1,0-.28.18.18,0,0,1,.14,0A.25.25,0,0,1,2,8.11l.2.24a.35.35,0,0,1,.06.14"/><path id="Path_8901" data-name="Path 8901" class="cls-7" d="M5.74,3.75a.2.2,0,0,1-.22-.18.43.43,0,0,1,0-.11l.2-.36A.2.2,0,0,1,6,3l0,0a.2.2,0,0,1,0,.23l-.19.36a.2.2,0,0,1-.17.11"/><path id="Path_8903" data-name="Path 8903" class="cls-7" d="M2,2.74a2.11,2.11,0,0,1,.35,0A.2.2,0,0,1,2.51,3s0,0,0,.06a.2.2,0,0,1-.21.12H1.91A.23.23,0,0,1,1.7,3a.2.2,0,0,1,.11-.23.22.22,0,0,1,.14,0H2"/></g></g></svg>