<svg xmlns="http://www.w3.org/2000/svg" xmlns:xlink="http://www.w3.org/1999/xlink" viewBox="0 0 812.89 425.72"><defs><style>.cls-1{fill:none;}.cls-2{clip-path:url(#clip-path);}.cls-3{fill:#7fd5f3;}.cls-4{fill:#f8c98b;}.cls-5{fill:#c6925c;}.cls-6{fill:#cc9764;}.cls-7{fill:#724b46;}.cls-8{fill:#634141;}.cls-9{fill:#9f684b;}.cls-10{fill:#c28450;}.cls-11{fill:#8d5e49;}.cls-12{fill:#b37751;}.cls-13{fill:#fcfcfc;}</style><clipPath id="clip-path" transform="translate(0 0)"><rect class="cls-1" width="812.89" height="425.72"/></clipPath></defs><g id="Layer_2" data-name="Layer 2"><g id="Layer_1-2" data-name="Layer 1"><g class="cls-2"><g id="Group_4193" data-name="Group 4193"><path id="Path_9162" data-name="Path 9162" class="cls-3" d="M21,12.72H776a21,21,0,0,1,21,21v371a21,21,0,0,1-21,21H21a21,21,0,0,1-21-21v-371a21,21,0,0,1,21-21" transform="translate(0 0)"/><path id="Path_9163" data-name="Path 9163" class="cls-4" d="M497.47,12.3H788.89c4.48,0,8.11,4.55,8.11,10.16V202c0,5.61,1.68,17.26-1.28,18.11,0,0-43.6-40.08-49.11-53.19-8.35-19.81-83.35-21.22-83.35-21.22-9.1-36-26.38-47.25-31.86-48.45-40.7-9-68.3-73.13-68.3-73.13,0-5.61-70.11-11.78-65.63-11.78" transform="translate(0 0)"/><path id="Path_9164" data-name="Path 9164" class="cls-5" d="M675.1,88.12c-1.57,1.36-7.09,3.9-8,4.25A39.28,39.28,0,0,1,661.29,94c-1.23.26-2.46.49-3.71.63s-2.72.3-4.09.35-2.62,0-3.93,0-2.49-.15-3.73-.3q-2.31-.29-4.59-.78a46.41,46.41,0,0,1-5.67-1.62c-1.42-.5-2.81-1.08-4.18-1.7s-2.66-1.33-3.95-2.07c-.93-.54-1.84-1.13-2.74-1.74-1.19-.8-2.33-1.65-3.44-2.55-.79-.64-1.55-1.32-2.3-2s-1.59-1.54-2.35-2.35-1.4-1.58-2.07-2.4a39.83,39.83,0,0,1-2.52-3.4c-.48-.69-.92-1.4-1.33-2.13a7.06,7.06,0,0,1-.23-1.65,44.52,44.52,0,0,1-.16-5.54c0-1.1.1-2.2.21-3.3a50.8,50.8,0,0,1,.91-5.61q.39-1.76.93-3.48c.39-1.28.85-2.54,1.32-3.79.13-.34.29-.67.41-1a.23.23,0,0,1,.16-.17c.13,0,.15.12.2.21.2.46.32,1,.54,1.43a2.58,2.58,0,0,0,2,1.47l2.7.53a2.64,2.64,0,0,0,3.07-1.4c.64-1.19,1.35-2.33,2-3.53a.61.61,0,0,0,0-.12,2.55,2.55,0,0,0-1-3.15c-.89-.66-1.76-1.36-2.64-2a4.63,4.63,0,0,0-1.78-1.1c-.27-.06-.54,0-.8-.12-.09-.16,0-.28.09-.4a47.38,47.38,0,0,1,3.46-4.42q1.41-1.6,3-3.09c1.18-1.13,2.43-2.18,3.71-3.19a42.88,42.88,0,0,1,4.35-3,.46.46,0,0,1,.19-.08c.18.07.23.24.3.39A2.75,2.75,0,0,0,635,27.26a2.39,2.39,0,0,0,1.29.21c1.19-.15,2.37-.28,3.55-.47a2.61,2.61,0,0,0,2.24-2.4c.09-1.05.21-2.1.35-3.15a.59.59,0,0,1,.1-.29,9,9,0,0,1,1.82-.67c1.3-.37,2.6-.71,3.93-1a49.39,49.39,0,0,1,6.74-.91c1.55-.1,3.09-.1,4.64-.07.15,0,.38-.07.46.18a2,2,0,0,1-.29.46,3.15,3.15,0,0,0-.16,3.41c.24.46.49.92.75,1.37.66,1.23,1.33,2.46,2,3.68a3.19,3.19,0,0,0,3.35,1.6c1.5-.26,3-.48,4.49-.81a3.07,3.07,0,0,0,2.42-2.71c.15-1.44.23-2.88.33-4.32,0-.13,0-.27.15-.35a9.7,9.7,0,0,1,1.58.51,46.54,46.54,0,0,1,6.82,3.2c1.22.71,2.44,1.45,3.6,2.26a46.38,46.38,0,0,1,9.43,8.61,52.41,52.41,0,0,1,3.84,5.29,4.74,4.74,0,0,1,.29.54,11.57,11.57,0,0,1,.2,1.66c.06.74.09,1.48.15,2.21-.32,9.44-13.14,37.6-24,42.79" transform="translate(0 0)"/><path id="Path_9165" data-name="Path 9165" class="cls-6" d="M614.26,47.4c-.4.89-.75,1.79-1.07,2.7-.21.63-.45,1.25-.65,1.88-.38,1.2-.73,2.42-1,3.65-.32,1.49-.6,3-.78,4.5-.11.86-.2,1.71-.27,2.58a46.88,46.88,0,0,0-.11,4.74c0,1.4.14,2.79.3,4.17,0,.1,0,.2,0,.31a21.49,21.49,0,0,1-1.21-2.07c-.37-.65-.68-1.32-1-2-.25-.51-.47-1-.7-1.56A46.1,46.1,0,0,1,606,61.37c-.23-.7-.42-1.41-.6-2.13s-.41-1.7-.58-2.56c-.23-1.17-.42-2.34-.55-3.53-.1-.92-.2-1.83-.25-2.75s-.08-2.12-.08-3.19.08-2.29.12-3.43c0-.76.15-1.52.25-2.27.07-.56.17-1.1.26-1.66.16-1,.33-1.9.56-2.84.12-.47.23-.94.35-1.4s.28-1.08.45-1.62c.27-.9.52-1.8.86-2.67.21-.52.38-1.06.6-1.57.45-1,.87-2.07,1.37-3.07a36.19,36.19,0,0,1,1.76-3.24c.56-.9,1.12-1.8,1.72-2.67s1.39-1.92,2.1-2.87c.53-.7,1.12-1.35,1.71-2s1.29-1.43,2-2.11c.43-.42.91-.82,1.35-1.24a41,41,0,0,1,3.68-3.05c.93-.71,1.9-1.35,2.89-2,.78-.51,1.59-1,2.41-1.44,1.08-.6,2.17-1.16,3.3-1.66,1-.43,1.92-.88,2.9-1.25s2.21-.77,3.33-1.11c.87-.27,1.76-.5,2.65-.72s2-.48,3-.64,1.79-.26,2.68-.37C647.81.12,649.4.07,651,0a33.9,33.9,0,0,1,3.49.1c.67,0,1.33.11,2,.15.93.06,1.85.24,2.77.38,1.11.16,2.22.38,3.32.65s2.35.62,3.51,1c1.4.43,2.74,1,4.1,1.51a31.27,31.27,0,0,1,3.16,1.48c1.18.62,2.33,1.28,3.47,2s2.42,1.56,3.57,2.42c.94.7,1.85,1.46,2.73,2.25s1.78,1.61,2.61,2.46S687.2,16,687.9,16.8s1.25,1.49,1.82,2.27,1.14,1.58,1.68,2.4,1.11,1.73,1.61,2.63c.64,1.14,1.24,2.31,1.78,3.5s1.1,2.56,1.58,3.87c.32.85.57,1.71.85,2.57.33,1,.59,2.1.83,3.17.31,1.35.51,2.73.74,4.1a.94.94,0,0,1,0,.16,6.94,6.94,0,0,1-.76-1.1c-.7-1.1-1.46-2.17-2.26-3.2a41,41,0,0,0-3-3.5c-.69-.71-1.36-1.43-2.1-2.09s-1.37-1.27-2.1-1.86-1.37-1.11-2.07-1.63l-1.34-1c-.65-.47-1.34-.89-2-1.32a44.07,44.07,0,0,0-4-2.25c-1-.5-2.08-1-3.16-1.44l-2.47-.91c-.09,0-.21,0-.27-.13a.13.13,0,0,1-.1-.1,7.12,7.12,0,0,0,0-1.22,3.23,3.23,0,0,0-1.37-2.19l-3.37-2.36a3,3,0,0,0-2.62-.33,5.65,5.65,0,0,0-1.82,1.1l-3.27,2.41c-.17.13-.28.37-.54.37-.11-.19-.32-.12-.47-.12-1.5,0-3-.05-4.48.07s-2.89.23-4.32.47c-1.2.2-2.4.4-3.58.67a38,38,0,0,0-4.68,1.38c-.13-.17-.05-.36,0-.53a2.53,2.53,0,0,0-1.06-2.34l-2.6-2a2.55,2.55,0,0,0-2.72-.05c-1.21.78-2.4,1.6-3.58,2.43A2.54,2.54,0,0,0,631.8,22q.45.95.93,1.86c.17.4.37.79.57,1.18.06.12.18.24.06.4a16.36,16.36,0,0,1-1.38.9c-.86.58-1.72,1.18-2.56,1.8A44,44,0,0,0,625.9,31c-1,.9-1.95,1.84-2.86,2.84-.66.73-1.34,1.46-1.95,2.24-.83,1-1.6,2.12-2.4,3.18a.33.33,0,0,0-.07.26.12.12,0,0,1-.08.06,4.36,4.36,0,0,0-1.88.92c-.7.47-1.42.94-2.12,1.42a2.61,2.61,0,0,0-.91,3.37c.25.57.43,1.17.63,1.76,0,.1.08.22,0,.32" transform="translate(0 0)"/><path id="Path_9166" data-name="Path 9166" class="cls-7" d="M673.41,56.1a14.37,14.37,0,0,0-.74-1.4,1,1,0,0,1-.14-.3,2.19,2.19,0,0,1,.65-1.73c.93-1.09,1.93-2.12,2.9-3.16.39-.42.79-.83,1.16-1.25a3.41,3.41,0,0,1,4.46-.44c1.15.83,2.33,1.62,3.52,2.4a2.25,2.25,0,0,1,.75.62,17,17,0,0,1-.48,1.73,24.2,24.2,0,0,1-.81,2.63,3,3,0,0,1-1.74,1.71c-1.2.44-2.46.67-3.68,1-.64.18-1.29.37-1.94.5a3.12,3.12,0,0,1-3.4-1.46c-.18-.28-.34-.58-.51-.87" transform="translate(0 0)"/><path id="Path_9167" data-name="Path 9167" class="cls-8" d="M686,50.84l-1.3-.91c-.66-.45-1.31-.91-2-1.34a12.19,12.19,0,0,0-1.55-1,3.25,3.25,0,0,0-3.8.72c-.86,1-1.75,1.88-2.63,2.82-.5.53-1,1-1.47,1.62a3.1,3.1,0,0,0-.69,1.67,6.47,6.47,0,0,1-1.2-2.75,3.24,3.24,0,0,1,.83-2.43c.74-.86,1.52-1.69,2.31-2.5a25.41,25.41,0,0,1,2.09-2.19,3.37,3.37,0,0,1,3.89-.08c.7.55,1.47,1,2.21,1.5s1.53,1,2.27,1.59a2.58,2.58,0,0,1,.62.7,3.12,3.12,0,0,1,.42,2.6" transform="translate(0 0)"/><path id="Path_9168" data-name="Path 9168" class="cls-9" d="M673.22,68.22a1.66,1.66,0,0,1-1.72-1.58,2.22,2.22,0,0,1,.06-.51c.21-.71.4-1.43.58-2.15a1.68,1.68,0,0,1,1.55-1.17c.85,0,1.71,0,2.57,0a1.91,1.91,0,0,1,1.3.41,1.79,1.79,0,0,1,.5.82c.23.59.42,1.19.61,1.79a1.7,1.7,0,0,1-.75,1.68,3.89,3.89,0,0,1-1.42.34c-.76.11-1.52.23-2.29.31a4.75,4.75,0,0,1-1,.1" transform="translate(0 0)"/><path id="Path_9169" data-name="Path 9169" class="cls-9" d="M668.17,81.53a1.71,1.71,0,0,1-1.3-.82,4.81,4.81,0,0,1-.39-1.83c-.19-1.06-.3-2.13-.43-3.19a3.5,3.5,0,0,1,0-1.16,1.6,1.6,0,0,1,1.07-1.19,1.89,1.89,0,0,1,1.3-.13,1.58,1.58,0,0,1,1.09,1.05c.54,1.49,1,3,1.56,4.5a1.67,1.67,0,0,1-.88,2.2,1.34,1.34,0,0,1-.26.09,14.17,14.17,0,0,1-1.4.44l-.31,0" transform="translate(0 0)"/><path id="Path_9170" data-name="Path 9170" class="cls-7" d="M673.15,21l.07.06a2.71,2.71,0,0,0-.13,1c-.11,1.24-.13,2.5-.3,3.73a3.08,3.08,0,0,1-1.72,2.42,9.53,9.53,0,0,1-2.78.64,23.05,23.05,0,0,1-2.72.46,3.24,3.24,0,0,1-3.36-1.94c-.59-1.14-1.21-2.26-1.81-3.39a2.83,2.83,0,0,1,.77-1.87,8.91,8.91,0,0,1,1.7-1.36c1-.71,1.94-1.46,2.93-2.16a3.36,3.36,0,0,1,3.6-.29,5.81,5.81,0,0,1,.82.54c.88.65,1.79,1.24,2.67,1.89a.63.63,0,0,1,.26.25" transform="translate(0 0)"/><path id="Path_9171" data-name="Path 9171" class="cls-7" d="M654.58,44.47a4.22,4.22,0,0,1,.37,2.75,3.24,3.24,0,0,1-.66,1.26c-1,1.2-2,2.37-3,3.58a3.4,3.4,0,0,1-4.39,1.2l-4-2a1.23,1.23,0,0,1-.57-.41,17.32,17.32,0,0,0,.32-2c.16-1.12.28-2.26.46-3.38a3.29,3.29,0,0,1,3.24-2.77c1.7-.07,3.39,0,5.08-.08a3.57,3.57,0,0,1,2.68,1.14c.2.2.25.48.43.69" transform="translate(0 0)"/><path id="Path_9172" data-name="Path 9172" class="cls-7" d="M645.09,70.06c.14,1.27.28,2.54.4,3.81a3.37,3.37,0,0,1-2.23,3.56c-1,.42-2,.89-3,1.35a3.45,3.45,0,0,1-3.9-.38c-.62-.47-1.28-.88-1.92-1.32l-1.9-1.31c-.06,0-.14-.08-.14-.17a.43.43,0,0,1,0-.46c.47-1.15.84-2.34,1.34-3.49a7.15,7.15,0,0,1,.57-1.26A3.19,3.19,0,0,1,637.1,69c1.9,0,3.81.13,5.71.19a4.13,4.13,0,0,1,2,.63c.12.07.18.2.3.27" transform="translate(0 0)"/><path id="Path_9173" data-name="Path 9173" class="cls-7" d="M633.36,25.44a9.91,9.91,0,0,0-.61-1.32.55.55,0,0,1-.07-.25,1.63,1.63,0,0,1,.48-1.42,3.47,3.47,0,0,1,.86-.72l3-2a2.7,2.7,0,0,1,3.41.12c.64.48,1.28,1,1.93,1.46a.32.32,0,0,1,.16.2c0,.59-.11,1.17-.16,1.75s-.12,1-.16,1.47a2.74,2.74,0,0,1-1.58,2.19,18.28,18.28,0,0,1-2.85.5c-.44.08-.89.1-1.34.17a2.57,2.57,0,0,1-2.57-1.25l-.49-.88" transform="translate(0 0)"/><path id="Path_9174" data-name="Path 9174" class="cls-7" d="M624.84,46c0,.24-.18.37-.27.56-.52,1.08-1.18,2.08-1.75,3.13a2.68,2.68,0,0,1-3.11,1.44c-1-.22-2.06-.39-3.07-.63a2.57,2.57,0,0,1-1.87-1.71c-.14-.38-.26-.77-.39-1.15a3,3,0,0,1,.49-1.71,3.32,3.32,0,0,1,.85-.78c.95-.64,1.88-1.32,2.87-1.89a2.74,2.74,0,0,1,3.26.34c.68.55,1.38,1.07,2.06,1.61a3.72,3.72,0,0,1,.93.79" transform="translate(0 0)"/><path id="Path_9175" data-name="Path 9175" class="cls-8" d="M645.09,70.06c-.18-.1-.37-.2-.55-.32a4.19,4.19,0,0,0-2.3-.52q-1.95-.07-3.9-.12a7.18,7.18,0,0,0-2.07,0,3.14,3.14,0,0,0-1.85,1.25A13.21,13.21,0,0,0,633.31,73c-.29.67-.52,1.37-.78,2a1.24,1.24,0,0,0-.12.6,2.76,2.76,0,0,1-1.26-1.84,3.36,3.36,0,0,1,.2-2.14c.5-1.29,1-2.6,1.47-3.89A3.27,3.27,0,0,1,634.48,66a4.37,4.37,0,0,1,2.23-.29l4.82.15A3.36,3.36,0,0,1,644.8,68a6.48,6.48,0,0,1,.26,1.7c0,.11,0,.22,0,.33" transform="translate(0 0)"/><path id="Path_9176" data-name="Path 9176" class="cls-8" d="M654.58,44.47a.16.16,0,0,1-.15-.11,3.29,3.29,0,0,0-3.08-1.63c-1.53,0-3.05,0-4.58,0a3.82,3.82,0,0,0-2.29.69A3.41,3.41,0,0,0,643.15,46c-.1.89-.24,1.77-.36,2.65-.08.64-.17,1.29-.25,1.94,0,.12,0,.28-.17.32A3.21,3.21,0,0,1,641.28,49a5,5,0,0,1,.09-1.88c.19-1.47.42-2.94.58-4.42a3.51,3.51,0,0,1,1.81-2.95,4.42,4.42,0,0,1,2.15-.4c1.49,0,3,0,4.47,0a3.35,3.35,0,0,1,3,1.72,28.42,28.42,0,0,1,1,2.8c.08.2.14.4.21.61" transform="translate(0 0)"/><path id="Path_9177" data-name="Path 9177" class="cls-8" d="M673.15,21c-.42-.24-.8-.54-1.2-.82-.68-.48-1.38-.94-2.05-1.43a3.64,3.64,0,0,0-1.36-.65,3.32,3.32,0,0,0-2.73.6L663,20.76c-.51.37-1,.74-1.51,1.15a3.12,3.12,0,0,0-1,2s0,.06-.05.08a9.86,9.86,0,0,1-1.06-2.07,3.17,3.17,0,0,1,.78-3.18A26.23,26.23,0,0,1,662.41,17c.83-.63,1.67-1.26,2.53-1.85a3.3,3.3,0,0,1,2.45-.43,5,5,0,0,1,1.89,1,14.16,14.16,0,0,1,1.19.84,10,10,0,0,1,2.08,1.65,3.4,3.4,0,0,1,.6,2.79" transform="translate(0 0)"/><path id="Path_9178" data-name="Path 9178" class="cls-8" d="M624.84,46c-.83-.64-1.66-1.28-2.5-1.91a4.45,4.45,0,0,0-2-1.11,2.9,2.9,0,0,0-2,.52c-.78.5-1.55,1-2.33,1.55a2.94,2.94,0,0,0-1.41,1.7,3.42,3.42,0,0,0-.09.63c0,.1,0,.22-.11.26l-.13-.22a11.54,11.54,0,0,0-.67-2,2.66,2.66,0,0,1,.6-3.29,16,16,0,0,1,1.8-1.24l1.35-.9a2.41,2.41,0,0,1,1.29-.44,2.71,2.71,0,0,1,2.07.73c.48.39,1,.75,1.47,1.14.72.6,1.53,1.1,2.2,1.76a2.46,2.46,0,0,1,.48,2.8" transform="translate(0 0)"/><path id="Path_9179" data-name="Path 9179" class="cls-8" d="M642.51,21.48l-2.45-1.81a2.55,2.55,0,0,0-2.65-.12c-1.27.81-2.52,1.67-3.75,2.55a2.25,2.25,0,0,0-1,1.77,11.29,11.29,0,0,1-.77-1.46,3.83,3.83,0,0,1-.47-1.43,2.62,2.62,0,0,1,1.2-2.4c1.11-.78,2.26-1.5,3.37-2.27a2.71,2.71,0,0,1,3.08.1c.84.7,1.76,1.3,2.61,2a2.36,2.36,0,0,1,.94,1.87c0,.31,0,.63-.06.94,0,.09,0,.2-.06.28" transform="translate(0 0)"/><path id="Path_9180" data-name="Path 9180" class="cls-10" d="M641.59,86.78c-1.14-.06-2.3,0-3.43-.2a1.59,1.59,0,0,1-1.39-1.76s0-.07,0-.11a1.7,1.7,0,0,1,1.89-1.41c1,.09,2,.15,3,.2a1.71,1.71,0,0,1,1.67,1.63,1.67,1.67,0,0,1-1.69,1.65h-.08" transform="translate(0 0)"/><path id="Path_9181" data-name="Path 9181" class="cls-11" d="M654.25,58.72A1.66,1.66,0,0,1,655.89,57a1.63,1.63,0,0,1,.68.14c1,.5,2.07,1,3.09,1.5a1.48,1.48,0,0,1,.85,1.4,1.56,1.56,0,0,1-.94,1.48,1.75,1.75,0,0,1-1.56,0c-.92-.42-1.82-.88-2.73-1.32a1.76,1.76,0,0,1-1-1.49" transform="translate(0 0)"/><path id="Path_9182" data-name="Path 9182" class="cls-10" d="M633.7,38.56c-.92,0-2-.05-3.05-.1a1.67,1.67,0,0,1-1.51-.94,1.61,1.61,0,0,1,.22-1.81,1.8,1.8,0,0,1,1.62-.57c1,.06,2,.14,3,.15a1.65,1.65,0,1,1-.08,3.29l-.16,0" transform="translate(0 0)"/><path id="Path_9183" data-name="Path 9183" class="cls-11" d="M651.71,84.82a1.58,1.58,0,0,1,.21-.7c.44-.9.87-1.8,1.32-2.69a1.67,1.67,0,0,1,1.46-1,1.63,1.63,0,0,1,1.59,2.27c-.49,1-1,2-1.5,3.09a1.69,1.69,0,0,1-2.31.64h0a1.65,1.65,0,0,1-.76-1.6" transform="translate(0 0)"/><path id="Path_9184" data-name="Path 9184" class="cls-10" d="M667.66,39.13a1.61,1.61,0,0,1-1.14,1.52c-1,.34-2,.67-2.95,1a1.69,1.69,0,0,1-2.2-.9,2,2,0,0,1-.13-.64,1.59,1.59,0,0,1,1-1.48c1.1-.39,2.21-.78,3.31-1.15a1.63,1.63,0,0,1,2,1.07,1.49,1.49,0,0,1,.07.55" transform="translate(0 0)"/><path id="Path_9185" data-name="Path 9185" class="cls-11" d="M685.31,38.61a1.89,1.89,0,0,1-1,1.37,1.76,1.76,0,0,1-1.92-.43,1.73,1.73,0,0,1-.42-1.12c-.1-1-.2-2.09-.29-3.13a1.62,1.62,0,0,1,1.52-1.72,1.4,1.4,0,0,1,.5,0A1.66,1.66,0,0,1,685,35.21c.08,1.06.21,2.12.34,3.4" transform="translate(0 0)"/><path id="Path_9186" data-name="Path 9186" class="cls-11" d="M636.58,54c0,.74-.58,1.15-1.19,1.53s-1.4.89-2.11,1.33a1.72,1.72,0,0,1-1.9.19,1.65,1.65,0,0,1-.72-2.13,2,2,0,0,1,.87-.87c.87-.55,1.73-1.12,2.63-1.63a1.63,1.63,0,0,1,2.22.6,1.6,1.6,0,0,1,.19.57,2.8,2.8,0,0,1,0,.41" transform="translate(0 0)"/><path id="Path_9187" data-name="Path 9187" class="cls-11" d="M623.86,69.3a1.77,1.77,0,0,1-.92,1.68,1.6,1.6,0,0,1-1.74-.23c-.61-.64-1.19-1.31-1.78-2-.21-.23-.42-.47-.62-.72a1.63,1.63,0,0,1,.25-2.29,1.72,1.72,0,0,1,1.11-.36,1.93,1.93,0,0,1,1.47.89c.58.65,1.13,1.32,1.72,2a2,2,0,0,1,.51,1" transform="translate(0 0)"/><path id="Path_9188" data-name="Path 9188" class="cls-11" d="M650.8,29.92A1.64,1.64,0,0,1,649,28.45a1.77,1.77,0,0,1,.13-.82c.47-1,1-2,1.47-3a1.64,1.64,0,0,1,3,1.38c-.48,1-1,2-1.45,3a1.65,1.65,0,0,1-1.33.94" transform="translate(0 0)"/><path id="Path_9189" data-name="Path 9189" class="cls-10" d="M649.49,14a1.6,1.6,0,0,1-1.6-1.17,1.73,1.73,0,0,1,.74-1.89l2.78-1.76a1.59,1.59,0,0,1,1.9.15,1.52,1.52,0,0,1,.45,1.9,1.77,1.77,0,0,1-.78.86c-.83.5-1.63,1-2.45,1.57a1.62,1.62,0,0,1-1,.34" transform="translate(0 0)"/><path id="Path_9190" data-name="Path 9190" class="cls-11" d="M620.13,22.89c.9,0,1.85-.06,2.79,0a1.6,1.6,0,0,1,1.37,2.26,1.67,1.67,0,0,1-1.67,1l-3,0a1.75,1.75,0,0,1-1.71-1.23,1.71,1.71,0,0,1,.79-1.88,2.27,2.27,0,0,1,1.18-.2l.24,0" transform="translate(0 0)"/><path id="Path_9191" data-name="Path 9191" class="cls-5" d="M757.41,167.36c0-.12-.07-.24-.1-.35s-.1-.36-.13-.55a27.78,27.78,0,0,0-1.1-4,53.61,53.61,0,0,0-2-5.2,44.87,44.87,0,0,0-2.23-4.23,54.2,54.2,0,0,0-3.2-4.76.59.59,0,0,0-.18-.13.28.28,0,0,1,0-.28c.89-1.34,1-2.92,1.49-4.41s.75-2.9,1.15-4.35a15.73,15.73,0,0,0,.54-2.15,5.49,5.49,0,0,0-3-5.7c-2.77-1.25-5.58-2.41-8.38-3.59a9,9,0,0,0-2.72-.86,5.37,5.37,0,0,0-4.49,1.67c-.7.71-1.29,1.51-2,2.24s-1.19,1.32-1.76,2c-.14.16-.26.41-.55.31a20.85,20.85,0,0,0-4.09-1.55,40.37,40.37,0,0,0-5.2-1.31,45.86,45.86,0,0,0-6.82-.72,50.17,50.17,0,0,0-6.37.21A1.71,1.71,0,0,1,704,128.2a3.4,3.4,0,0,0-2.07-2.58,4.79,4.79,0,0,0-2.22-.25c-2.23.14-4.46.34-6.7.48a5.34,5.34,0,0,0-3.79,1.35,4.23,4.23,0,0,0-1.16,2c-.34,1.42-.74,2.82-1.1,4.24-.2.78-.39,1.57-.52,2.36a.68.68,0,0,1-.35.54,39.21,39.21,0,0,0-6.14,4.24,43.75,43.75,0,0,0-6.55,6.64c-.79,1-1.5,2.1-2.2,3.19-.94,1.44-2.34,1.38-3.42.12a67,67,0,0,1-6-8.48,63.24,63.24,0,0,1-3.15-5.63c-1-2.12-2.06-4.23-2.93-6.42s-1.58-4.21-2.27-6.35-1.2-4.11-1.67-6.2c-.59-2.6-1-5.23-1.38-7.88a81.18,81.18,0,0,1-.66-10.1c0-2.58.13-5.16.34-7.74s.64-5.07,1.09-7.58c.33-1.83.76-3.64,1.22-5.44q.91-3.57,2.14-7c.59-1.65,1.25-3.27,1.95-4.88s1.57-3.47,2.44-5.16,1.75-3.18,2.68-4.73a68.49,68.49,0,0,1,4.06-6,39.6,39.6,0,0,1,2.68-3.37,12.77,12.77,0,0,1,2.53-1.34,80.17,80.17,0,0,1,8.87-3.45c1.8-.57,3.62-1.1,5.45-1.55a87.11,87.11,0,0,1,9.6-1.77c2-.26,4.11-.42,6.18-.51,2.3-.1,4.59-.08,6.89,0,.62,0,1.24.08,1.87.08A.38.38,0,0,1,710,39c.06.22-.1.32-.22.45-.64.6-1.38,1.07-2,1.7a4.49,4.49,0,0,0-1.23,4.09c.22,1.56.46,3.12.7,4.68a4.54,4.54,0,0,0,4,4.16c2.29.35,4.56.84,6.85,1.17h.23a4.39,4.39,0,0,0,4.53-3.39c.56-1.82,1.19-3.62,1.76-5.44a8,8,0,0,0,.75-3.5c-.06-.46-.24-.9-.27-1.37.21-.24.45-.16.7-.09a84.43,84.43,0,0,1,9.14,3c2.27.92,4.51,1.92,6.71,3,2.51,1.26,4.93,2.67,7.3,4.17a76.47,76.47,0,0,1,7.34,5.31.87.87,0,0,1,.23.27c0,.33-.25.51-.46.71a4.73,4.73,0,0,0-1.59,3,4.06,4.06,0,0,0,.4,2.22c.93,1.82,1.82,3.67,2.81,5.47A4.46,4.46,0,0,0,762.88,71c1.75-.46,3.52-.86,5.3-1.25a1.19,1.19,0,0,1,.53,0,15.82,15.82,0,0,1,2.13,2.56c1.35,1.89,2.65,3.8,3.86,5.79a84.22,84.22,0,0,1,5.37,10.38c1.06,2.44,1.95,4.94,2.78,7.46.08.25.33.58,0,.84a3.09,3.09,0,0,1-.9-.2,5.39,5.39,0,0,0-5.6,1.71c-.61.66-1.22,1.32-1.79,2-1.61,1.77-3.21,3.56-4.8,5.35a5.47,5.47,0,0,0-.66,6.33c1.29,2.27,2.51,4.58,3.9,6.8a5.25,5.25,0,0,0,5.78,2.35c2.4-.58,4.78-1.29,7.17-2,.22-.06.45-.17.66,0a17.06,17.06,0,0,1,.08,2.86,79.34,79.34,0,0,1-1.25,12.86c-.43,2.4-.93,4.78-1.58,7.14a79.8,79.8,0,0,1-8.49,20.21,88.72,88.72,0,0,1-6.34,9.27,6.48,6.48,0,0,1-.71.77,19.17,19.17,0,0,1-2.56,1.29c-1.16.52-2.33,1-3.48,1.52a2.91,2.91,0,0,1-3.82-1.52,2.56,2.56,0,0,1-.23-1,38.53,38.53,0,0,0-.69-4.68c.08-.22-.13-.38-.1-.58" transform="translate(0 0)"/><path id="Path_9192" data-name="Path 9192" class="cls-6" d="M710,39.08c-1.66-.13-3.32-.18-5-.16-1.14,0-2.28,0-3.42,0-2.16.07-4.33.21-6.47.49-2.59.34-5.17.75-7.73,1.32-1.45.32-2.89.66-4.32,1.06a77.89,77.89,0,0,0-7.74,2.56c-2.23.88-4.42,1.82-6.56,2.89l-.5.19a36.08,36.08,0,0,1,2.64-3.15c.84-1,1.76-1.87,2.66-2.77.69-.7,1.41-1.36,2.12-2a85,85,0,0,1,7-5.74c1-.76,2-1.49,3.09-2.18,1.25-.84,2.51-1.66,3.8-2.42,1.76-1,3.55-2,5.4-2.92,1.43-.68,2.84-1.39,4.31-2,1.68-.7,3.38-1.34,5.1-2s3.75-1.19,5.62-1.77c1.25-.39,2.54-.64,3.82-.91.94-.2,1.88-.37,2.83-.54,1.63-.3,3.27-.57,4.92-.73.82-.08,1.64-.18,2.46-.25s1.92-.16,2.87-.2c1.61-.08,3.22-.19,4.83-.14,1,0,1.92,0,2.89.07,1.91.13,3.84.21,5.74.44,2.1.24,4.2.54,6.26,1,1.78.38,3.55.77,5.31,1.24,2,.53,3.92,1.14,5.86,1.75,1.43.44,2.82,1,4.21,1.6s3.06,1.26,4.55,2c.94.46,1.85,1,2.79,1.47a70.56,70.56,0,0,1,7.07,4.18c1.68,1.1,3.29,2.3,4.88,3.52,1.28,1,2.51,2,3.72,3.07,1.59,1.4,3.14,2.84,4.6,4.38,1.24,1.31,2.52,2.6,3.69,4,1.3,1.53,2.52,3.14,3.72,4.75Q798.37,53,799.64,55c1,1.48,1.93,3,2.78,4.51.74,1.36,1.45,2.75,2.15,4.14,1.23,2.44,2.23,5,3.23,7.51.73,1.86,1.3,3.78,1.86,5.71.32,1.1.58,2.21.9,3.31.43,1.53.67,3.12,1,4.68.38,1.9.66,3.82.86,5.75s.36,4.16.45,6.25c.11,2.5,0,5-.09,7.49a52,52,0,0,1-.56,6c-.33,2.26-.74,4.51-1.21,6.75-.51,2.43-1.13,4.81-1.86,7.17q-.9,2.9-2.07,5.72c-.78,1.9-1.57,3.8-2.47,5.64-.81,1.68-1.7,3.32-2.64,4.94-.84,1.44-1.69,2.87-2.63,4.24s-1.9,2.77-2.91,4.1-2.16,2.8-3.32,4.12c-1.49,1.7-3,3.34-4.64,4.91s-3.51,3.25-5.34,4.78c-1.2,1-2.45,1.92-3.68,2.86-1.49,1.14-3.06,2.17-4.64,3.17-2,1.28-4.13,2.4-6.21,3.55a1,1,0,0,1-.29,0,11.3,11.3,0,0,1,1.36-1.87c1.38-1.77,2.65-3.61,3.87-5.5a70.61,70.61,0,0,0,4-6.79c.75-1.51,1.52-3,2.16-4.6s1.27-2.95,1.82-4.46,1-2.85,1.43-4.3c.28-.91.53-1.82.8-2.72.39-1.33.67-2.68,1-4a71.27,71.27,0,0,0,1.31-7.82c.2-2,.46-4,.51-5.94,0-1.51,0-3,0-4.53,0-.17-.07-.35.05-.51a.23.23,0,0,1,.1-.22,13,13,0,0,0,2-.74,5.51,5.51,0,0,0,2.75-3.47c.63-2.27,1.26-4.55,1.87-6.82a5.15,5.15,0,0,0-1-4.43,9.78,9.78,0,0,0-2.84-2.31c-1.93-1.29-3.86-2.58-5.78-3.89-.3-.21-.75-.24-.91-.66.24-.3,0-.58-.07-.83C781.85,93.47,781,91,780,88.68s-2-4.54-3.25-6.72c-1-1.82-2-3.64-3.16-5.39a64.08,64.08,0,0,0-4.92-6.79c.2-.3.55-.27.83-.35a4.33,4.33,0,0,0,3.17-3.06c.58-1.78,1.14-3.57,1.71-5.35a4.34,4.34,0,0,0-1.49-4.42c-2-1.52-4-3-6-4.4a4.36,4.36,0,0,0-5.72.62c-.84.85-1.67,1.7-2.48,2.58-.55.51-1.05,1.06-1.57,1.6-.16.17-.3.43-.61.32a24.57,24.57,0,0,1-2.25-1.7c-1.43-1.07-2.9-2.11-4.38-3.11q-3.25-2.17-6.72-4c-2-1.09-4.11-2.1-6.25-3-1.57-.65-3.14-1.32-4.75-1.87-2.15-.74-4.35-1.37-6.52-2.05a.61.61,0,0,0-.46,0,.24.24,0,0,1-.15-.09A7.59,7.59,0,0,0,722.48,39c-1.18-.86-2.34-1.75-3.53-2.61a4.49,4.49,0,0,0-6,.46,32,32,0,0,1-2.48,2c-.15.12-.3.26-.53.17" transform="translate(0 0)"/><path id="Path_9193" data-name="Path 9193" class="cls-12" d="M740.92,188c-1.63,2.5-3.29,5-4.87,7.51a3,3,0,0,1-4.1,1l-.19-.13c-1.94-1.24-4-2.32-6-3.54-1.07-.67-2.17-1.29-3.24-1.94-1.9-1.15-3.81-2.27-5.7-3.42a3.91,3.91,0,0,1-1.94-1.78,2.8,2.8,0,0,1,0-2.43c.87-1.64,1.69-3.31,2.55-5,1-1.92,2-3.82,3-5.74.7-1.38,1.34-2.79,2.07-4.15a7,7,0,0,1,.62-1.1,2.18,2.18,0,0,1,2.35-.34c2,1,4,2.2,5.93,3.3,1.3.72,2.55,1.51,3.87,2.17a4,4,0,0,1,2,2.74c.89,3.12,1.87,6.2,2.8,9.3a10,10,0,0,1,.75,3.53" transform="translate(0 0)"/><path id="Path_9194" data-name="Path 9194" class="cls-7" d="M728.76,133a25.19,25.19,0,0,0,1.84-2,2,2,0,0,1,.42-.39,3.74,3.74,0,0,1,3.17.06c2.3.86,4.53,1.89,6.79,2.87.9.38,1.78.78,2.69,1.14a5.87,5.87,0,0,1,3.28,7c-.69,2.34-1.27,4.7-1.86,7.07a3.69,3.69,0,0,1-.58,1.57,24.25,24.25,0,0,1-3.07.23,41.14,41.14,0,0,1-4.71.21,5.14,5.14,0,0,1-3.78-1.84c-1.41-1.68-2.5-3.58-3.77-5.37-.66-.93-1.35-1.85-1.92-2.83a5.37,5.37,0,0,1,.39-6.34c.35-.45.74-.88,1.11-1.33" transform="translate(0 0)"/><path id="Path_9195" data-name="Path 9195" class="cls-12" d="M710.58,166.76c-.58,1.84-1.18,3.66-1.74,5.5-.39,1.29-.8,2.57-1.24,3.85a2.81,2.81,0,0,1-3.56,1.62,3.42,3.42,0,0,1-1.16-.79c-2.24-2.19-4.49-4.36-6.74-6.54-1.44-1.4-2.88-2.8-4.31-4.22a2.88,2.88,0,0,1,0-3.85c1-1,1.8-2,2.71-3.06s2-2.18,3-3.27a3.89,3.89,0,0,1,3.06,1.16c2.92,2.52,5.92,4.94,8.83,7.47a2.8,2.8,0,0,1,1.15,2.14" transform="translate(0 0)"/><path id="Path_9196" data-name="Path 9196" class="cls-8" d="M744.51,150.28c.24-.88.48-1.75.71-2.63.36-1.33.73-2.65,1-4a24.11,24.11,0,0,0,.75-3.1,5.61,5.61,0,0,0-3.36-5.74c-2-.85-4-1.75-6.07-2.62-1.15-.5-2.29-1-3.47-1.44a5.34,5.34,0,0,0-3.09-.16c1.11-1.32,2.06-2.79,3.74-3.53a5.58,5.58,0,0,1,4.41-.06c1.82.7,3.6,1.49,5.38,2.29a45.74,45.74,0,0,1,4.74,2.13,5.78,5.78,0,0,1,2.37,6.24c-.47,1.45-.76,3-1.15,4.44s-.8,3.07-1.26,4.6a4.54,4.54,0,0,1-.78,1.41,5.35,5.35,0,0,1-4,2.16" transform="translate(0 0)"/><path id="Path_9197" data-name="Path 9197" class="cls-9" d="M740.92,188c-.1,0-.21,0-.19-.13.2-1.15-.4-2.16-.65-3.22-.35-1.4-.86-2.77-1.29-4.15l-1.5-5a11.58,11.58,0,0,0-.54-1.6,3.62,3.62,0,0,0-1.77-1.53c-2.18-1.26-4.37-2.49-6.57-3.73-1-.55-1.95-1.1-2.95-1.6a2.36,2.36,0,0,0-1.91.13l-.34.12a32.25,32.25,0,0,1,2.45-4.47,2.94,2.94,0,0,1,2.61-.72,27.57,27.57,0,0,1,4.3,2.27c1.62.84,3.16,1.82,4.77,2.68.48.25.95.55,1.41.84a4,4,0,0,1,1.6,2.64c.36,1.38.85,2.73,1.26,4.09q.84,2.74,1.62,5.5c.16.55.36,1.09.51,1.65a3.06,3.06,0,0,1-.44,2.56c-.78,1.22-1.59,2.43-2.38,3.65" transform="translate(0 0)"/><path id="Path_9198" data-name="Path 9198" class="cls-9" d="M710.3,146.44c-.87-1.63.59-3.79,2.42-3.88,1.27-.07,2.55-.19,3.82-.31a2.88,2.88,0,0,1,2.77,1.83c.5,1.39,1.06,2.75,1.55,4.13a3.31,3.31,0,0,1,.09,2.36,3,3,0,0,1-1,1.27c-.82.7-1.69,1.35-2.55,2a2.91,2.91,0,0,1-3.14-.25,6.8,6.8,0,0,1-1.37-2.1c-.61-1.18-1.25-2.34-1.83-3.53a8.73,8.73,0,0,1-.72-1.55" transform="translate(0 0)"/><path id="Path_9199" data-name="Path 9199" class="cls-9" d="M685.86,146a2.94,2.94,0,0,1,.58-2.57,8.17,8.17,0,0,1,2.74-1.69c1.6-.91,3.26-1.72,4.91-2.55a6.46,6.46,0,0,1,1.85-.74,2.76,2.76,0,0,1,2.54,1,3.42,3.42,0,0,1,1,2,2.72,2.72,0,0,1-1.07,2.37c-2.11,1.73-4.26,3.41-6.38,5.12a2.89,2.89,0,0,1-4.08-.16,2.57,2.57,0,0,1-.28-.37,21.05,21.05,0,0,1-1.52-2c-.09-.15-.16-.31-.25-.47" transform="translate(0 0)"/><path id="Path_9200" data-name="Path 9200" class="cls-9" d="M710.58,166.76c-.37-1.57-1.65-2.37-2.77-3.31l-5.74-4.83-2-1.68a3.25,3.25,0,0,0-2.35-.81c-.05,0-.11-.09-.17-.13.77-.86,1.5-1.78,2.34-2.57a2.67,2.67,0,0,1,3.49-.12c1,.72,1.84,1.52,2.76,2.29q1.95,1.62,3.89,3.25a5.4,5.4,0,0,1,1.84,2.07,3.09,3.09,0,0,1,0,2.08c-.38,1.26-.82,2.51-1.24,3.77" transform="translate(0 0)"/><path id="Path_9201" data-name="Path 9201" class="cls-13" d="M757.41,167.36c.05.19.18.36.1.57,0-.19-.2-.36-.1-.57" transform="translate(0 0)"/><path id="Path_9202" data-name="Path 9202" class="cls-13" d="M757.18,166.46c.1.17.23.33.13.55,0-.19-.18-.35-.13-.55" transform="translate(0 0)"/><path id="Path_9203" data-name="Path 9203" class="cls-7" d="M786.63,119.12l-.06.14a4.57,4.57,0,0,0-1.72.37c-2.07.55-4.11,1.23-6.21,1.68a5.32,5.32,0,0,1-4.9-1.39c-1.24-1.14-1.81-2.72-2.64-4.12a44.2,44.2,0,0,1-2.32-4.14,5.6,5.6,0,0,1,1.21-6.55c1.5-1.62,3-3.27,4.44-4.9a4.83,4.83,0,0,1,3.47.16,14.65,14.65,0,0,1,3.17,2c1.73,1.17,3.48,2.29,5.19,3.49a5.75,5.75,0,0,1,2.54,5.66,9.13,9.13,0,0,1-.4,1.64c-.53,1.79-1,3.61-1.51,5.4a1.11,1.11,0,0,1-.26.57" transform="translate(0 0)"/><path id="Path_9204" data-name="Path 9204" class="cls-7" d="M738,102.61a7.15,7.15,0,0,1-4.24,2.18,5.64,5.64,0,0,1-2.41-.33c-2.5-.92-5-1.88-7.51-2.78a6.16,6.16,0,0,1-4.26-4,5.78,5.78,0,0,1-.21-2.41l.87-7.55a2.08,2.08,0,0,1,.35-1.16,30.67,30.67,0,0,0,3.44-.65c1.91-.39,3.81-.85,5.73-1.2a5.65,5.65,0,0,1,6.36,3.64c1.08,2.7,2,5.46,3,8.18a6.1,6.1,0,0,1-.29,5c-.21.44-.64.69-.88,1.1" transform="translate(0 0)"/><path id="Path_9205" data-name="Path 9205" class="cls-7" d="M691.11,102c-2,1-4,1.91-5.93,2.84a5.8,5.8,0,0,1-7-1.57c-1.26-1.39-2.59-2.71-3.91-4a5.93,5.93,0,0,1-1.63-6.54c.4-1.27.68-2.58,1-3.87s.68-2.55,1-3.82c0-.13,0-.28.2-.34a.69.69,0,0,1,.72-.28c2.14.09,4.28,0,6.42.15a11.05,11.05,0,0,1,2.37.2,5.5,5.5,0,0,1,3.91,3.7c1,3.1,2,6.24,3,9.36a7.2,7.2,0,0,1,.13,3.57c0,.24-.23.41-.27.64" transform="translate(0 0)"/><path id="Path_9206" data-name="Path 9206" class="cls-7" d="M756.52,57.31a18.17,18.17,0,0,0,1.77-1.74,1.08,1.08,0,0,1,.37-.26,2.83,2.83,0,0,1,2.58,0,6.32,6.32,0,0,1,1.66,1q2.51,1.81,5,3.66A4.75,4.75,0,0,1,770,64.13a5.16,5.16,0,0,1-.3,1.36c-.42,1.32-.85,2.64-1.25,4a.56.56,0,0,1-.24.39l-2.92.73c-.82.2-1.64.38-2.46.6a4.71,4.71,0,0,1-4.45-1.3,27.5,27.5,0,0,1-2.46-4.32c-.39-.67-.68-1.39-1-2.07a4.37,4.37,0,0,1,.53-4.88c.38-.43.76-.86,1.13-1.3" transform="translate(0 0)"/><path id="Path_9207" data-name="Path 9207" class="cls-7" d="M718.37,55.37c-.37.2-.7-.07-1-.1-2-.23-4.05-.72-6.08-1A4.64,4.64,0,0,1,707.12,50c-.23-1.78-.55-3.54-.75-5.33a4.42,4.42,0,0,1,1.68-4c.54-.45,1.1-.86,1.65-1.3a5,5,0,0,1,3-.18,5.42,5.42,0,0,1,1.75.91c1.58,1.17,3.21,2.28,4.71,3.56a4.69,4.69,0,0,1,1.32,5.47c-.5,1.41-.93,2.85-1.42,4.27a6,6,0,0,1-.74,1.94" transform="translate(0 0)"/><path id="Path_9208" data-name="Path 9208" class="cls-8" d="M691.11,102c.06-.36.1-.72.19-1.08a7.28,7.28,0,0,0-.47-4q-1-3.19-2.06-6.38a12.3,12.3,0,0,0-1.26-3.33,5.45,5.45,0,0,0-3.1-2.28,22.47,22.47,0,0,0-4.77-.31c-1.26-.08-2.52-.05-3.78-.08a2.41,2.41,0,0,0-1,.14,4.73,4.73,0,0,1,2.24-3.08,5.82,5.82,0,0,1,3.58-.92c2.38.07,4.77,0,7.15.14a5.61,5.61,0,0,1,3.79,1.67,7.63,7.63,0,0,1,1.75,3.44c.85,2.63,1.7,5.25,2.53,7.88a5.76,5.76,0,0,1-1.66,6.55,11.19,11.19,0,0,1-2.59,1.4l-.51.25" transform="translate(0 0)"/><path id="Path_9209" data-name="Path 9209" class="cls-8" d="M738,102.61a.34.34,0,0,1,.1-.32,5.57,5.57,0,0,0,.85-5.91c-.91-2.45-1.8-4.92-2.7-7.39a6.47,6.47,0,0,0-2.43-3.3,5.85,5.85,0,0,0-4.85-.69c-1.49.35-3,.63-4.48.94l-3.29.71c-.21,0-.44.2-.61-.09a5.45,5.45,0,0,1,2.37-2.83,8.25,8.25,0,0,1,3.1-.93c2.49-.56,5-1,7.48-1.62a6,6,0,0,1,5.8,1.22,7.54,7.54,0,0,1,1.88,3.26c.87,2.4,1.73,4.81,2.66,7.19a5.76,5.76,0,0,1-1.09,5.8,43.66,43.66,0,0,1-3.93,3.27c-.28.24-.57.46-.86.69" transform="translate(0 0)"/><path id="Path_9210" data-name="Path 9210" class="cls-8" d="M786.63,119.12c.15-.83.41-1.62.63-2.42.39-1.38.73-2.77,1.13-4.15a6.06,6.06,0,0,0,.26-2.57,5.62,5.62,0,0,0-2.55-4.07q-2.46-1.68-4.93-3.35c-.9-.6-1.8-1.22-2.74-1.77a5.27,5.27,0,0,0-3.83-.54.47.47,0,0,1-.17,0,16.77,16.77,0,0,1,2.74-2.91,5.49,5.49,0,0,1,5.6-.58,49.18,49.18,0,0,1,4.16,2.69c1.5,1,3,2,4.45,3a5.68,5.68,0,0,1,2.11,3.72c.24,1.32-.3,2.44-.57,3.64-.18.81-.4,1.62-.66,2.41-.48,1.44-.6,3-1.47,4.31a5.88,5.88,0,0,1-4.16,2.6" transform="translate(0 0)"/><path id="Path_9211" data-name="Path 9211" class="cls-8" d="M718.37,55.37c.55-1.71,1.12-3.41,1.65-5.13a7.65,7.65,0,0,0,.64-3.89,5,5,0,0,0-2-3c-1.27-1-2.57-1.91-3.85-2.87a5.12,5.12,0,0,0-3.57-1.31,7.81,7.81,0,0,0-1.07.22c-.16,0-.32.18-.47,0l.27-.33a20.85,20.85,0,0,0,2.82-2.24,4.58,4.58,0,0,1,5.67-.93,27.32,27.32,0,0,1,3,2.2c.75.55,1.48,1.12,2.23,1.66a4.19,4.19,0,0,1,1.46,1.84,4.69,4.69,0,0,1,0,3.78c-.35,1-.64,2-1,3-.55,1.52-.88,3.12-1.57,4.58a4.21,4.21,0,0,1-4.24,2.38" transform="translate(0 0)"/><path id="Path_9212" data-name="Path 9212" class="cls-8" d="M768.18,69.84q.77-2.5,1.52-5a4.38,4.38,0,0,0-1.33-4.36c-2-1.59-4.15-3.11-6.28-4.6a3.88,3.88,0,0,0-3.43-.56,17.15,17.15,0,0,1,1.92-2.08,6.19,6.19,0,0,1,2-1.59,4.54,4.54,0,0,1,4.57.55c1.9,1.35,3.73,2.78,5.61,4.14a4.67,4.67,0,0,1,1.63,5c-.66,1.76-1.1,3.6-1.72,5.37a4.1,4.1,0,0,1-2.49,2.6c-.5.19-1,.3-1.55.44-.16,0-.31.16-.49.06" transform="translate(0 0)"/><path id="Path_9213" data-name="Path 9213" class="cls-10" d="M662.05,106c-.57-1.89-1.28-3.74-1.66-5.66a2.72,2.72,0,0,1,2-3.27l.18,0A2.92,2.92,0,0,1,666,99.26q.66,2.52,1.42,5a2.91,2.91,0,0,1-1.68,3.63,2.86,2.86,0,0,1-3.63-1.77l0,0,0-.11" transform="translate(0 0)"/><path id="Path_9214" data-name="Path 9214" class="cls-11" d="M714.72,110.28A2.86,2.86,0,0,1,718.4,112a2.68,2.68,0,0,1,.18,1.19c-.22,1.95-.4,3.91-.66,5.86a2.5,2.5,0,0,1-1.76,2.17,2.7,2.7,0,0,1-2.95-.65,3,3,0,0,1-.85-2.55c.14-1.72.36-3.45.56-5.17a3,3,0,0,1,1.8-2.53" transform="translate(0 0)"/><path id="Path_9215" data-name="Path 9215" class="cls-10" d="M735.48,65.43c-.48-1.5-1.06-3.24-1.58-5a2.85,2.85,0,0,1,.63-3,2.78,2.78,0,0,1,3.06-.68,3,3,0,0,1,1.85,2.28c.49,1.63.93,3.28,1.48,4.89a2.82,2.82,0,0,1-5.36,1.77,2.29,2.29,0,0,1-.08-.28" transform="translate(0 0)"/><path id="Path_9216" data-name="Path 9216" class="cls-11" d="M671.05,121.24a2.35,2.35,0,0,1,1.26-.07c1.7.19,3.41.36,5.11.58a2.83,2.83,0,0,1,2.46,1.79,2.77,2.77,0,0,1-1.46,3.64,2.71,2.71,0,0,1-1.29.22c-2-.19-3.91-.47-5.87-.64a2.91,2.91,0,0,1-2.36-3.37h0a2.82,2.82,0,0,1,2.15-2.14" transform="translate(0 0)"/><path id="Path_9217" data-name="Path 9217" class="cls-10" d="M754.14,120.68a2.75,2.75,0,0,1-3.1-1c-1.12-1.4-2.23-2.8-3.37-4.19a2.87,2.87,0,0,1,.19-4.06,2.72,2.72,0,0,1,1-.58,2.69,2.69,0,0,1,3,.77c1.26,1.56,2.53,3.11,3.76,4.69a2.79,2.79,0,0,1-.56,3.9,3,3,0,0,1-.85.43" transform="translate(0 0)"/><path id="Path_9218" data-name="Path 9218" class="cls-11" d="M765.16,148.92a3.18,3.18,0,0,1-2.79-.83,3,3,0,0,1-.41-3.35,3.08,3.08,0,0,1,1.56-1.33c1.63-.77,3.26-1.51,4.9-2.26a2.79,2.79,0,0,1,3.88,2.3,2.83,2.83,0,0,1-1.83,3c-1.68.74-3.32,1.56-5.3,2.51" transform="translate(0 0)"/><path id="Path_9219" data-name="Path 9219" class="cls-11" d="M712.1,79c-1.2.41-2.18-.27-3.14-1-1.12-.89-2.26-1.76-3.38-2.64a3,3,0,0,1-1.4-3,2.84,2.84,0,0,1,3-2.39,3.41,3.41,0,0,1,1.91.9c1.39,1.1,2.81,2.17,4.15,3.32a2.78,2.78,0,0,1,.32,3.93,2.67,2.67,0,0,1-.81.65,5.4,5.4,0,0,1-.67.25" transform="translate(0 0)"/><path id="Path_9220" data-name="Path 9220" class="cls-11" d="M680.09,67.24a3,3,0,0,1-3.24-.53,2.74,2.74,0,0,1-.64-2.94c.69-1.36,1.44-2.68,2.17-4,.26-.47.53-1,.81-1.41a2.8,2.8,0,0,1,3.85-.91A2.74,2.74,0,0,1,684.25,59a3.31,3.31,0,0,1-.58,2.9c-.72,1.3-1.49,2.58-2.17,3.9a3.49,3.49,0,0,1-1.41,1.44" transform="translate(0 0)"/><path id="Path_9221" data-name="Path 9221" class="cls-11" d="M759.32,88.11a2.82,2.82,0,0,1,1.34-3.74,2.74,2.74,0,0,1,1.41-.26c1.9.16,3.79.46,5.69.64a2.81,2.81,0,0,1-.51,5.6c-1.88-.2-3.76-.43-5.64-.63a2.84,2.84,0,0,1-2.29-1.61" transform="translate(0 0)"/><path id="Path_9222" data-name="Path 9222" class="cls-10" d="M784.36,76.8a2.77,2.77,0,0,1,1-3.27,2.93,2.93,0,0,1,3.48.11c1.48,1.16,3,2.33,4.46,3.48a2.75,2.75,0,0,1,.84,3.15,2.62,2.62,0,0,1-2.81,1.83,3.13,3.13,0,0,1-1.84-.77c-1.29-1-2.64-2-4-3.06a2.71,2.71,0,0,1-1.15-1.47" transform="translate(0 0)"/><path id="Path_9223" data-name="Path 9223" class="cls-11" d="M753,34.45c.52,1.45,1.16,2.95,1.58,4.52a2.75,2.75,0,0,1-1.88,3.42,3,3,0,0,1-1,.1,2.89,2.89,0,0,1-2.62-2.11c-.56-1.62-1.13-3.23-1.7-4.85a3,3,0,0,1,1-3.47,2.91,2.91,0,0,1,3.5.19,3.73,3.73,0,0,1,1,1.79c0,.11.06.22.11.41" transform="translate(0 0)"/><path id="Path_9224" data-name="Path 9224" class="cls-12" d="M702.61,206c-1.63,2.5-3.29,5-4.87,7.52a3,3,0,0,1-4.1,1l-.18-.12c-2-1.25-4-2.33-6-3.55-1.07-.66-2.17-1.28-3.24-1.94-1.9-1.15-3.81-2.26-5.7-3.42a3.87,3.87,0,0,1-1.93-1.77,2.77,2.77,0,0,1,0-2.43c.87-1.65,1.7-3.32,2.55-5,1-1.92,2-3.82,3-5.75.7-1.37,1.34-2.78,2.07-4.14a6.23,6.23,0,0,1,.62-1.1,2.16,2.16,0,0,1,2.35-.34c2,1,4,2.19,5.93,3.29,1.3.72,2.55,1.51,3.88,2.18a4,4,0,0,1,2,2.74c.89,3.11,1.87,6.2,2.8,9.3a9.91,9.91,0,0,1,.75,3.52" transform="translate(0 0)"/><path id="Path_9225" data-name="Path 9225" class="cls-12" d="M672.28,184.77c-.59,1.83-1.19,3.66-1.75,5.49-.39,1.29-.8,2.58-1.24,3.85a2.82,2.82,0,0,1-3.56,1.63,3.68,3.68,0,0,1-1.16-.79c-2.24-2.19-4.49-4.36-6.74-6.54l-4.31-4.22a2.89,2.89,0,0,1,0-3.86c1-1,1.8-2,2.71-3.05s2-2.19,3-3.28a3.9,3.9,0,0,1,3.06,1.17c2.92,2.52,5.93,4.93,8.84,7.46a2.88,2.88,0,0,1,1.15,2.14" transform="translate(0 0)"/><path id="Path_9226" data-name="Path 9226" class="cls-9" d="M672,164.44c-.86-1.63.6-3.78,2.42-3.88,1.27-.06,2.55-.18,3.82-.31a2.91,2.91,0,0,1,2.78,1.84c.49,1.38,1,2.74,1.55,4.13a3.34,3.34,0,0,1,.08,2.35,3,3,0,0,1-1,1.27c-.83.7-1.69,1.36-2.55,2a2.93,2.93,0,0,1-3.14-.26,6.52,6.52,0,0,1-1.37-2.1c-.62-1.17-1.25-2.34-1.83-3.53a8.68,8.68,0,0,1-.73-1.54" transform="translate(0 0)"/><path id="Path_9227" data-name="Path 9227" class="cls-9" d="M647.55,164a3,3,0,0,1,.58-2.58,8.54,8.54,0,0,1,2.74-1.69c1.6-.91,3.26-1.71,4.91-2.54a5.93,5.93,0,0,1,1.85-.74,2.74,2.74,0,0,1,2.54,1,3.39,3.39,0,0,1,1,2,2.71,2.71,0,0,1-1.07,2.37c-2.11,1.73-4.26,3.41-6.38,5.12a2.88,2.88,0,0,1-4.07-.16,2.48,2.48,0,0,1-.29-.37,24.48,24.48,0,0,1-1.52-2c-.09-.15-.16-.31-.25-.48" transform="translate(0 0)"/><path id="Path_9228" data-name="Path 9228" class="cls-9" d="M672.28,184.77c-.37-1.57-1.66-2.38-2.77-3.32l-5.75-4.83-2-1.67a3.3,3.3,0,0,0-2.36-.82s-.11-.08-.17-.13c.78-.86,1.5-1.77,2.34-2.57a2.67,2.67,0,0,1,3.49-.12c1,.73,1.84,1.53,2.76,2.29,1.3,1.09,2.6,2.16,3.89,3.26a5.35,5.35,0,0,1,1.85,2.07,3.13,3.13,0,0,1,0,2.07c-.38,1.27-.82,2.52-1.23,3.77" transform="translate(0 0)"/></g></g></g></g></svg>